<?xml version="1.0" encoding="utf-8"?>
<svg width="466px" height="466px" viewBox="0 0 466 466" version="1.1" xmlns:xlink="http://www.w3.org/1999/xlink" xmlns="http://www.w3.org/2000/svg">
  <desc>Created with Lunacy</desc>
  <g id="music-record" transform="translate(6 4)">
    <path d="M208 0.388901L207 0.611099L205 0.916698L203 1L201 1.0278L200 1.0833L198 1.3889L196 1.7778L195 1.9167L193 2.0833L191 2.3889L189 2.7778L187 3.0555L185 3.3889L183 3.8055L181 4.1945L180 4.3889L179 4.6389L178 4.8611L177 5.1389L175 5.6111L174 5.8055L172 6.1945L171 6.3889L170 6.6389L169 6.8611L167 7.3889L166 7.6945L164 8.3055L163 8.6111L161 9.1389L160 9.3889L158 10L157 10.3333L154 11.3333L151 12.3333L150 12.6667L149 13.0278L148 13.3889L147 13.8055L145 14.6111L143 15.3889L142 15.8055L140 16.6111L138 17.3889L137 17.8333L136 18.25L135 18.7778L133 19.75L132 20.1667L131 20.6111L129 21.3889L128 21.8333L127 22.25L125 23.2222L124 23.7778L123 24.2222L121 25.25L120 25.8333L119 26.3889L117 27.6111L115 28.75L114 29.25L112 30.3889L110 31.6111L108 32.8055L107 33.3889L106 34.0278L104 35.3333L103 36L100 38L98 39.3333L97 40L96 40.6945L95 41.3889L93 42.8611L92 43.6389L91 44.3611L90 45.1389L89 45.8611L87 47.3611L86 48.1389L84 49.6389L83 50.3889L81 52.083L79 53.917L78 54.778L76 56.389L74 58.083L73 59.028L71 61L69 63L66 66L63 69L61 71L59.028 73L58.083 74L56.389 76L54.778 78L53.917 79L52.083 81L50.3889 83L49.6389 84L48.1389 86L47.3611 87L45.8611 89L45.1389 90L44.3611 91L43.6389 92L42.8611 93L41.3889 95L40.6944 96L40 97L39.3333 98L37.3333 101L35.3333 104L34.6667 105L34.0278 106L33.3889 107L32.8056 108L31.6111 110L30.3889 112L29.25 114L28.75 115L27.6111 117L26.3889 119L25.8333 120L25.25 121L24.2222 123L23.7778 124L23.2222 125L22.25 127L21.8333 128L21.3889 129L20.6111 131L20.1667 132L19.75 133L18.7778 135L18.25 136L17.8333 137L17.3889 138L16.6111 140L15.8056 142L15.3889 143L14.6111 145L13.8056 147L13.3889 148L13.0278 149L12.6667 150L12.3333 151L11.3333 154L10.3333 157L10 158L9.3889 160L9.1389 161L8.6111 163L8.3056 164L7.6944 166L7.3889 167L6.8611 169L6.6389 170L6.3611 171L6.1389 172L5.8611 173L5.3889 175L5.1944 176L4.8056 178L4.6111 179L4.3889 180L4.1944 181L3.8056 183L3.6111 184L3.3889 185L3.0556 187L2.9444 188L2.6111 190L2.2222 192L2.0833 193L1.9167 195L1.7778 196L1.3889 198L1.0833 200L1.0278 201L0.972198 203L0.916698 204L0.611099 206L0.388901 207L0.0833015 209L0.0278015 210L0 212L0 214L0 222L0 237L0 240L0 242L0.0278015 244L0.0833015 245L0.388901 247L0.611099 248L0.916698 250L0.972198 251L1.0278 253L1.0833 254L1.3889 256L1.7778 258L1.9167 259L2.0833 261L2.2222 262L2.6111 264L2.9444 266L3.0556 267L3.3889 269L3.6111 270L3.8056 271L4.1944 273L4.3889 274L4.6111 275L4.8056 276L5.1944 278L5.3889 279L5.8611 281L6.1389 282L6.3611 283L6.6389 284L6.8611 285L7.3889 287L7.6944 288L8.3056 290L8.6111 291L9.1389 293L9.3889 294L10 296L10.3333 297L11.3333 300L12.3333 303L12.6667 304L13.0278 305L13.3889 306L13.8056 307L14.6111 309L15.3889 311L15.8056 312L16.6111 314L17.3889 316L17.8333 317L18.25 318L18.7778 319L19.75 321L20.1667 322L20.6111 323L21.3889 325L22.25 327L22.7778 328L23.2222 329L23.7778 330L24.2222 331L25.25 333L25.8333 334L26.3889 335L27.6111 337L28.75 339L29.25 340L30.3889 342L31.6111 344L32.8056 346L33.3889 347L34.6667 349L35.3333 350L37.3333 353L39.3333 356L40 357L40.6944 358L41.3889 359L42.8611 361L43.6389 362L44.3611 363L45.1389 364L45.8611 365L47.3889 367L48.1944 368L49.8056 370L51.3889 372L53.056 374L53.944 375L55.611 377L56.389 378L58.083 380L59.028 381L61 383L63 385L66 388L69 391L71 393L73 394.972L74 395.917L76 397.611L77 398.389L79 400.056L80 400.944L82 402.611L84 404.194L86 405.806L87 406.611L89 408.139L90 408.861L91 409.639L92 410.361L93 411.139L95 412.611L96 413.306L97 414L98 414.667L101 416.667L104 418.667L105 419.333L107 420.611L108 421.194L110 422.389L112 423.611L114 424.75L115 425.222L116 425.778L117 426.222L119 427.25L120 427.833L121 428.389L123 429.611L124 430.167L125 430.75L126 431.222L127 431.75L129 432.611L131 433.389L132 433.833L133 434.25L135 435.222L136 435.75L137 436.167L138 436.611L140 437.389L142 438.194L143 438.611L145 439.389L147 440.194L148 440.611L150 441.333L151 441.667L154 442.667L157 443.667L158 444L160 444.611L161 444.861L163 445.389L164 445.694L166 446.306L167 446.611L169 447.139L171 447.611L172 447.806L174 448.194L175 448.389L176 448.639L177 448.861L178 449.139L180 449.611L181 449.806L183 450.194L185 450.611L187 450.944L189 451.222L191 451.611L193 451.917L195 452.083L196 452.222L198 452.611L200 452.917L201 452.972L202 453L204 453.028L205 453.083L207 453.389L208 453.611L210 453.917L211 453.972L213 454L214 454L216 454L227 454L237 454L241 454L243 453.972L244 453.917L246 453.611L247 453.389L249 453.083L250 453.028L252 453L253 452.972L254 452.917L256 452.611L258 452.222L259 452.083L261 451.917L262 451.778L264 451.389L266 451.056L267 450.944L269 450.611L270 450.389L271 450.194L273 449.806L274 449.611L275 449.389L276 449.194L278 448.806L279 448.611L281 448.139L282 447.861L284 447.361L285 447.139L287 446.611L288 446.306L290 445.694L291 445.389L293 444.861L294 444.611L296 444L297 443.667L300 442.667L303 441.667L304 441.333L305 440.972L306 440.611L307 440.194L309 439.389L311 438.611L312 438.194L314 437.389L316 436.611L317 436.167L318 435.75L319 435.222L321 434.25L322 433.833L323 433.389L325 432.611L327 431.75L328 431.222L329 430.778L330 430.222L331 429.75L333 428.611L335 427.389L336 426.833L337 426.25L338 425.778L339 425.222L340 424.75L342 423.611L344 422.389L346 421.194L347 420.611L349 419.333L350 418.667L353 416.667L356 414.667L357 414L358 413.306L359 412.611L361 411.139L362 410.361L363 409.639L364 408.861L365 408.139L367 406.611L368 405.806L370 404.194L372 402.611L374 400.944L375 400.056L377 398.389L378 397.611L380 395.917L381 394.972L383 393L385 391L388 388L391 385L393 383L394.972 381L395.917 380L397.611 378L398.389 377L400.056 375L400.944 374L402.611 372L404.194 370L405.806 368L406.611 367L408.139 365L408.861 364L409.639 363L410.361 362L411.139 361L412.611 359L413.306 358L414 357L414.667 356L416.667 353L418.667 350L419.333 349L420.611 347L421.194 346L422.389 344L423.611 342L424.75 340L425.222 339L425.778 338L426.25 337L426.833 336L427.389 335L428.611 333L429.75 331L430.222 330L430.778 329L431.222 328L431.75 327L432.611 325L433.389 323L433.833 322L434.25 321L435.222 319L435.75 318L436.167 317L436.611 316L437.389 314L438.194 312L438.611 311L439.389 309L440.194 307L440.611 306L440.972 305L441.333 304L441.667 303L442.667 300L443.667 297L444 296L444.611 294L444.861 293L445.389 291L445.694 290L446.306 288L446.611 287L447.139 285L447.611 283L447.806 282L448.194 280L448.389 279L448.861 277L449.139 276L449.361 275L449.611 274L449.806 273L450.194 271L450.611 269L450.944 267L451.222 265L451.611 263L451.917 261L452.083 259L452.222 258L452.611 256L452.917 254L452.972 253L453 252L453.028 250L453.083 249L453.389 247L453.611 246L453.917 244L453.972 243L454 241L454 239L454 236L454 223L454 214L454 212L453.972 210L453.917 209L453.611 207L453.389 206L453.083 204L453.028 203L452.972 201L452.917 200L452.611 198L452.222 196L452.083 195L451.917 193L451.778 192L451.389 190L451.056 188L450.944 187L450.611 185L450.389 184L450.194 183L449.806 181L449.611 180L449.389 179L449.194 178L448.806 176L448.611 175L448.139 173L447.861 172L447.639 171L447.361 170L447.139 169L446.611 167L446.306 166L445.694 164L445.389 163L444.861 161L444.611 160L444 158L443.667 157L442.667 154L441.667 151L441.333 150L440.972 149L440.611 148L440.194 147L439.389 145L438.611 143L438.194 142L437.389 140L436.611 138L436.167 137L435.75 136L435.222 135L434.25 133L433.833 132L433.389 131L432.611 129L431.75 127L431.222 126L430.778 125L430.222 124L429.75 123L428.611 121L427.389 119L426.833 118L426.25 117L425.778 116L425.222 115L424.75 114L423.611 112L422.389 110L421.194 108L420.611 107L419.333 105L418.667 104L416.667 101L414.667 98L414 97L413.306 96L412.611 95L411.139 93L410.361 92L409.639 91L408.861 90L408.139 89L406.611 87L405.806 86L404.194 84L402.611 82L400.944 80L400.056 79L398.389 77L397.611 76L395.917 74L394.972 73L393 71L391 69L388 66L385 63L383 61L381 59.028L380 58.083L378 56.389L377 55.611L375 53.944L374 53.056L372 51.3889L370 49.8055L368 48.1945L367 47.3889L365 45.8611L364 45.1389L363 44.3611L362 43.6389L361 42.8611L359 41.3889L358 40.6945L357 40L356 39.3333L353 37.3333L350 35.3333L349 34.6667L348 34.0278L347 33.3889L346 32.8055L344 31.6111L342 30.3889L340 29.25L339 28.75L337 27.6111L335 26.3889L333 25.25L331 24.2222L330 23.7778L329 23.2222L327 22.25L326 21.8333L325 21.3889L323 20.6111L322 20.1667L321 19.75L319 18.7778L318 18.25L317 17.8333L316 17.3889L314 16.6111L312 15.8055L311 15.3889L309 14.6111L307 13.8055L306 13.3889L305 13.0278L304 12.6667L303 12.3333L300 11.3333L297 10.3333L296 10L294 9.3889L293 9.1389L291 8.6111L290 8.3055L288 7.6945L287 7.3889L285 6.8611L284 6.6389L283 6.3611L282 6.1389L281 5.8611L279 5.3889L278 5.1945L276 4.8055L275 4.6111L274 4.3889L273 4.1945L271 3.8055L270 3.6111L269 3.3889L267 3.0555L266 2.9445L264 2.6111L262 2.2222L261 2.0833L259 1.9167L258 1.7778L256 1.3889L254 1.0833L253 1.0278L252 1L250 0.972198L249 0.916698L247 0.611099L246 0.388901L244 0.0833015L243 0.0278015L241 0L240 0L237 0L226 0L216 0L213 0L212 0L210 0.0833015L208 0.388901L208 0.388901Z" id="Shape" fill="#000000" stroke="none" />
    <path d="M207 0.388901L206 0.611099L204 0.916698L202 1L201 1L200 1L197 1L196 1L194 1.0278L193 1.0833L191 1.3889L190 1.6111L188 1.9167L187 1.9722L185 2.0833L183 2.3889L182 2.6111L180 2.9445L179 3.0555L177 3.3889L176 3.6111L174 3.9445L173 4.0555L171 4.3889L170 4.6389L168 5.1389L167 5.3611L166 5.6389L165 5.8611L163 6.3611L162 6.6389L161 6.8611L159 7.3611L158 7.6389L157 7.8611L155 8.3889L154 8.6945L152 9.3055L151 9.6111L150 9.8611L148 10.3889L146 11L144 11.6667L143 12.0278L142 12.3889L141 12.8055L139 13.6111L137 14.3889L136 14.8055L134 15.6111L132 16.3889L131 16.8055L129 17.6111L127 18.3889L126 18.8333L125 19.25L124 19.7778L122 20.7778L121 21.2222L120 21.7778L119 22.2222L118 22.7778L117 23.2222L116 23.7778L115 24.2222L114 24.7778L112 25.7778L111 26.25L110 26.8333L109 27.3889L107 28.6111L105 29.75L104 30.25L102 31.3889L101 32.0278L100 32.6667L99 33.3333L97 34.6667L94 36.6667L93 37.3333L91 38.694L90 39.389L88 40.861L87 41.639L86 42.361L85 43.139L84 43.861L82 45.361L81 46.139L79 47.639L78 48.389L76 50.083L74 51.917L73 52.778L71 54.389L69 56.083L68 57.028L66 59L65 60L63 62L60 65L59 66L57.028 68L56.083 69L54.389 71L52.778 73L51.917 74L50.083 76L48.389 78L47.639 79L46.139 81L45.361 82L44.639 83L43.139 85L42.361 86L41.639 87L40.861 88L39.389 90L38.694 91L37.3333 93L36.6667 94L34.6667 97L33.3333 99L32.6667 100L32.0278 101L31.3889 102L30.25 104L29.75 105L28.6111 107L27.3889 109L26.25 111L25.7778 112L24.7778 114L24.2222 115L23.7778 116L23.2222 117L22.7778 118L22.2222 119L21.7778 120L21.2222 121L20.7778 122L19.7778 124L19.25 125L18.3889 127L17.6111 129L16.75 131L16.25 132L15.3889 134L15.0278 135L14.6667 136L14.3333 137L13.6111 139L13.1944 140L12.3889 142L11.6667 144L11 146L10.6944 147L10.3889 148L10.1389 149L9.6111 151L9.3056 152L8.6944 154L8.3889 155L7.8611 157L7.6389 158L7.3611 159L7.1389 160L6.8611 161L6.6389 162L6.1389 164L5.8611 165L5.6389 166L5.3611 167L5.1389 168L4.6389 170L4.3889 171L4.0556 173L3.9444 174L3.6111 176L3.3889 177L3.0556 179L2.9444 180L2.6111 182L2.2222 184L2.0833 185L1.9722 187L1.9167 188L1.6111 190L1.3889 191L1.0833 193L1.0278 194L1 196L1 197L1 200L1 202L0.972199 204L0.916698 205L0.611099 207L0.222198 209L0.0833015 210L0 212L0 213L0.0278015 215L0.0833015 216L0.388901 218L0.611099 219L0.916698 221L0.972199 222L1 224L1 225L1 228L1 230L1.0278 232L1.0833 233L1.3889 235L1.6111 236L1.9167 238L2.0278 240L2.0833 241L2.3889 243L2.6111 244L2.9444 246L3.0556 247L3.3889 249L3.6111 250L3.8056 251L4.1944 253L4.3889 254L4.6111 255L4.8056 256L5.1944 258L5.3889 259L5.8611 261L6.1389 262L6.3611 263L6.6389 264L6.8611 265L7.3611 267L7.6389 268L7.8611 269L8.3889 271L8.6944 272L9.3056 274L9.6111 275L10.1389 277L10.3889 278L10.6944 279L11 280L11.6667 282L12.3889 284L13.1944 286L13.6111 287L14.3333 289L14.6667 290L15.0278 291L15.3889 292L16.25 294L16.75 295L17.6111 297L18.3889 299L19.25 301L19.7778 302L20.7778 304L21.2222 305L21.7778 306L22.2222 307L22.7778 308L23.2222 309L23.7778 310L24.2222 311L24.7778 312L25.7778 314L26.25 315L26.8333 316L27.3889 317L28.6111 319L29.75 321L30.25 322L31.3889 324L32.0278 325L32.6667 326L33.3333 327L34.6667 329L36.6667 332L37.3333 333L38.694 335L39.389 336L40.861 338L41.639 339L42.361 340L43.139 341L44.639 343L45.361 344L46.139 345L47.639 347L48.389 348L50.083 350L51.917 352L52.778 353L54.389 355L56.083 357L57.028 358L59 360L60 361L63 364L65 366L67 367.972L68 368.917L70 370.611L71 371.389L73 373.083L74 374.028L76 375.917L77 376.778L78 377.611L80 379.139L81 379.861L83 381.361L84 382.139L85 382.861L86 383.639L87 384.361L88 385.139L90 386.611L91 387.306L93 388.667L94 389.333L97 391.333L99 392.667L100 393.333L101 393.972L102 394.611L104 395.75L105 396.25L107 397.389L109 398.611L110 399.167L111 399.75L112 400.222L114 401.222L115 401.778L116 402.222L117 402.778L118 403.222L119 403.778L120 404.222L121 404.778L122 405.222L124 406.222L125 406.75L126 407.167L127 407.611L129 408.389L130 408.806L132 409.611L134 410.389L135 410.806L137 411.611L139 412.389L141 413.194L142 413.611L144 414.333L146 415L147 415.306L148 415.611L150 416.139L151 416.389L152 416.694L154 417.306L155 417.611L157 418.139L158 418.361L159 418.639L160 418.861L161 419.139L162 419.361L164 419.861L165 420.139L166 420.361L167 420.639L168 420.861L170 421.361L171 421.611L173 421.944L174 422.056L176 422.389L177 422.611L179 422.944L180 423.056L182 423.389L183 423.611L185 423.917L186 423.972L188 424.083L190 424.389L191 424.611L193 424.917L194 424.972L196 425L197 425L200 425L201 425L203 425.028L204 425.083L206 425.389L207 425.611L209 425.917L210 425.972L212 426L213 426L215 426L216 425.972L217 425.917L219 425.611L220 425.389L222 425.083L223 425.028L225 425L226 425L229 425L230 425L232 424.972L233 424.917L235 424.611L236 424.389L238 424.083L239 424.028L241 423.917L242 423.778L244 423.389L246 423.056L247 422.944L249 422.611L250 422.389L252 422.056L253 421.944L255 421.611L256 421.361L258 420.861L259 420.639L261 420.139L262 419.861L263 419.639L264 419.361L265 419.139L266 418.861L267 418.639L268 418.361L269 418.139L271 417.611L272 417.306L274 416.694L275 416.389L277 415.861L278 415.611L279 415.306L280 415L282 414.333L284 413.611L286 412.806L287 412.389L289 411.667L290 411.333L291 410.972L292 410.611L294 409.75L295 409.25L297 408.389L299 407.611L301 406.75L302 406.222L304 405.222L305 404.778L306 404.222L307 403.778L308 403.222L309 402.778L310 402.222L311 401.778L312 401.222L314 400.222L315 399.75L316 399.167L317 398.611L319 397.389L321 396.25L322 395.75L324 394.611L325 393.972L326 393.333L327 392.667L330 390.667L333 388.667L334 388L335 387.306L336 386.611L337 385.861L339 384.361L340 383.639L341 382.861L342 382.139L344 380.611L345 379.806L347 378.194L349 376.611L350 375.778L352 374L353 373.083L355 371.389L356 370.611L358 368.917L359 367.972L361 366L362 365L364 363L366 361L367.972 359L368.917 358L370.611 356L371.389 355L373.083 353L374 352L375.778 350L376.611 349L378.194 347L379.806 345L380.611 344L382.139 342L382.861 341L383.639 340L384.361 339L385.861 337L386.611 336L387.306 335L388 334L388.667 333L390.667 330L392 328L392.667 327L393.972 325L394.611 324L395.75 322L396.25 321L397.389 319L398.611 317L399.167 316L399.75 315L400.222 314L401.222 312L401.778 311L402.222 310L402.778 309L403.222 308L403.778 307L404.222 306L404.778 305L405.222 304L406.222 302L406.75 301L407.167 300L407.611 299L408.389 297L408.806 296L409.611 294L410.389 292L410.806 291L411.611 289L412.389 287L413.194 285L413.611 284L414.333 282L415 280L415.306 279L415.611 278L416.139 276L416.389 275L416.694 274L417.306 272L417.611 271L418.139 269L418.361 268L418.639 267L419.139 265L419.361 264L419.639 263L419.861 262L420.139 261L420.611 259L420.806 258L421.194 256L421.389 255L421.611 254L421.806 253L422.194 251L422.389 250L422.611 249L422.944 247L423.056 246L423.389 244L423.611 243L423.917 241L423.972 240L424.083 238L424.389 236L424.611 235L424.917 233L424.972 232L425 230L425 228L425 225L425 223L425.083 221L425.389 219L425.611 218L425.917 216L426 214L426 212L425.917 210L425.611 208L425.389 207L425.083 205L425.028 204L425 202L425 201L425 198L425 196L424.972 194L424.917 193L424.611 191L424.389 190L424.083 188L423.972 186L423.917 185L423.611 183L423.389 182L423.056 180L422.944 179L422.611 177L422.389 176L422.194 175L421.806 173L421.611 172L421.389 171L421.194 170L420.806 168L420.611 167L420.139 165L419.861 164L419.361 162L419.139 161L418.861 160L418.639 159L418.361 158L418.139 157L417.611 155L417.306 154L416.694 152L416.389 151L415.861 149L415.611 148L415.306 147L415 146L414.333 144L413.611 142L413.194 141L412.389 139L411.611 137L410.806 135L410.389 134L409.611 132L408.806 130L408.389 129L407.611 127L407.167 126L406.75 125L406.222 124L405.222 122L404.778 121L404.222 120L403.778 119L403.222 118L402.778 117L402.222 116L401.778 115L401.222 114L400.222 112L399.75 111L399.167 110L398.611 109L397.389 107L396.25 105L395.75 104L394.611 102L393.972 101L393.333 100L392.667 99L391.333 97L389.333 94L388.667 93L387.306 91L386.611 90L385.139 88L384.361 87L383.639 86L382.861 85L382.139 84L381.361 83L379.861 81L379.139 80L377.611 78L376.778 77L375.917 76L374.028 74L373.083 73L371.389 71L370.611 70L368.917 68L367.972 67L366 65L365 64L363 62L361 60L360 59L358 57.028L357 56.083L355 54.389L353 52.778L352 51.917L350 50.083L348 48.389L347 47.639L345 46.139L343 44.639L342 43.861L341 43.139L340 42.361L339 41.639L338 40.861L336 39.389L335 38.694L333 37.3333L332 36.6667L329 34.6667L327 33.3333L326 32.6667L325 32.0278L324 31.3889L322 30.25L321 29.75L319 28.6111L317 27.3889L316 26.8333L315 26.25L314 25.7778L312 24.7778L311 24.2222L310 23.7778L309 23.2222L308 22.7778L307 22.2222L305 21.2222L304 20.7778L303 20.2222L302 19.7778L301 19.2222L299 18.25L298 17.8333L297 17.3889L295 16.6111L293 15.8055L292 15.3889L291 15.0278L290 14.6667L288 13.9722L287 13.6111L286 13.1945L284 12.3889L282 11.6667L280 11L279 10.6945L278 10.3889L276 9.8611L275 9.6111L274 9.3055L273 9L271 8.3333L270 8L268 7.4167L266 7L264 6.6111L262 6.1389L261 5.8611L260 5.6389L258 5.1389L256 4.6389L255 4.3889L253 4.0555L252 3.9445L250 3.6111L249 3.3889L247 3.0555L246 2.9445L244 2.6111L243 2.3889L241 2.0833L240 2.0278L238 1.9167L236 1.6111L235 1.3889L233 1.0833L232 1.0278L230 1L229 1L226 1L225 1L223 0.972199L222 0.916698L220 0.611099L219 0.388901L217 0.0833015L216 0.0278015L215 0L213 0L211 0L209 0.0833015L207 0.388901L207 0.388901Z" transform="translate(14 14)" id="Shape" fill="#FF9800" stroke="none" />
    <path d="M4.97199 0.25L3 1.25L2.08298 2L1.30499 2.833L0.69397 3.778L0.304993 4.75L0.0829773 5.75L0 7.75L0.0549927 8.75L0.471985 10.667L1.47198 12.333L3.05499 13.639L4 14.111L4.97199 14.444L6.97198 14.694L8.97198 14.5L9.97199 14.25L11.861 13.25L12.639 12.5L13.278 11.667L14.055 9.75L14.361 7.75L14.333 6.75L13.916 4.75L13.055 2.861L12.472 2.056L10.889 0.861L8.97198 0.167L7.97198 0L5.97198 0.0279999L4.97199 0.25ZM32.972 15.778L34.972 15.25L35.972 15.194L37.972 15.5L39.889 16.389L40.722 17.056L41.472 17.861L42.472 19.75L42.889 21.75L42.889 23.75L42.472 25.722L42.028 26.667L40.722 28.25L39.889 28.806L38.944 29.25L36.972 29.667L35.972 29.722L34.972 29.722L33.972 29.639L32 29.028L30.222 27.639L29.472 26.722L28.472 24.75L28.139 22.75L28.222 21.75L28.694 19.778L29.611 18L30.278 17.25L32 16.167L32.972 15.778ZM57.972 36.25L57 36.694L55.222 38L54.472 38.833L53.472 40.75L53.139 42.75L53.222 43.75L53.389 44.75L54.083 46.722L55.278 48.444L57 49.639L57.972 50.028L58.972 50.333L60.972 50.583L62.972 50.25L64.889 49.25L66.472 47.667L67.472 45.75L67.722 44.75L67.916 42.75L67.639 40.75L67.25 39.75L65.861 37.861L64.944 37.083L63.972 36.472L62.972 36.083L60.972 35.806L58.972 36L57.972 36.25ZM76.222 62.25L78 61.25L78.972 61L80.972 60.806L81.972 60.833L83.972 61.25L85.861 62.25L86.666 63L87.861 64.778L88.472 66.75L88.472 68.75L88.25 69.75L87.555 71.667L86.472 73.278L85.722 73.889L84.889 74.472L82.972 75.278L80.972 75.583L78.972 75.25L77 74.25L76.083 73.5L74.694 71.722L74.083 69.75L74 68.75L74 67.75L74.222 65.75L74.472 64.778L75.472 63L76.222 62.25Z" transform="translate(283.028 67.25)" id="Shape" fill="#000000" fill-rule="evenodd" stroke="none" />
    <path d="M311.833 0L309.833 0.306015L308.861 0.639008L307.916 1.08301L306.333 2.5L305.777 3.41701L305.083 5.38901L304.889 7.38901L304.944 8.38901L305.139 9.38901L305.472 10.361L305.944 11.306L307.25 12.889L308.916 13.889L310.833 14.306L311.833 14.361L312.833 14.361L314.833 14.056L315.805 13.667L316.75 13.056L318.333 11.361L318.889 10.389L319.333 9.38901L319.666 7.38901L319.416 5.38901L318.722 3.472L317.527 1.88901L316.722 1.30602L314.833 0.445007L313.833 0.167007L311.833 0ZM2.083 128.5L3.861 127.111L4.833 126.722L6.833 126.417L8.833 126.5L9.833 126.722L10.833 127.111L11.805 127.722L12.722 128.5L14.111 130.389L14.5 131.389L14.777 133.389L14.75 134.389L14.333 136.389L13.333 138.278L11.75 139.667L10.805 140.056L8.833 140.361L6.833 140.361L4.833 140.139L3.861 139.889L2.139 138.889L1.472 138.139L0.555 136.361L0.0830002 134.389L0 133.389L0.333 131.389L1.333 129.417L2.083 128.5ZM20.833 154.861L18.916 155.667L18.083 156.25L17.333 156.861L16.25 158.472L15.555 160.389L15.333 161.389L15.333 163.389L15.944 165.361L17.139 167.139L17.944 167.889L19.833 168.889L21.833 169.306L22.833 169.333L24.833 169.139L25.805 168.889L27.583 167.889L28.333 167.139L29.333 165.361L29.583 164.389L29.805 162.389L29.805 161.389L29.722 160.389L29.111 158.417L27.722 156.639L26.805 155.889L24.833 154.889L22.833 154.556L20.833 154.861ZM38.916 180.889L40.833 179.889L42.833 179.556L44.833 179.806L45.833 180.111L46.805 180.5L48.527 181.695L49.722 183.417L50.416 185.389L50.583 186.389L50.666 187.389L50.333 189.389L49.333 191.306L48.583 192.139L46.805 193.445L45.833 193.889L44.833 194.139L42.833 194.333L40.833 194.056L39.833 193.667L38.861 193.056L37.944 192.278L36.555 190.389L36.166 189.389L35.889 187.389L36.083 185.389L36.333 184.389L37.333 182.472L38.916 180.889ZM64.861 200.889L63.083 201.889L62.333 202.639L61.333 204.417L60.916 206.389L60.916 208.389L61.333 210.389L62.333 212.278L63.916 213.695L65.833 214.472L67.833 214.778L68.833 214.75L70.833 214.333L71.805 213.972L73.527 212.889L74.722 211.306L75.416 209.389L75.583 208.389L75.666 207.389L75.333 205.389L74.333 203.417L72.75 201.722L70.833 200.722L69.833 200.5L67.833 200.417L65.833 200.639L64.861 200.889ZM91.944 216.889L93.833 215.889L94.833 215.639L96.833 215.445L98.833 215.695L99.805 216.028L100.75 216.5L102.333 217.806L103.333 219.472L103.75 221.389L103.805 222.389L103.722 224.389L103.5 225.389L103.111 226.361L102.5 227.306L101.722 228.139L100.805 228.889L98.833 229.889L97.833 230.111L95.833 230.139L94.833 229.972L92.916 229.278L91.333 228.083L90.75 227.278L89.889 225.389L89.472 223.389L89.444 222.389L89.75 220.389L90.527 218.472L91.166 217.639L91.944 216.889Z" transform="translate(67.16699 156.611)" id="Shape" fill="#000000" fill-rule="evenodd" stroke="none" />
  </g>
  <g id="headphones" transform="matrix(-0.7071067 0.7071069 -0.7071069 -0.7071067 425.3328 231)">
    <path d="M125.491 0.377709L126.109 0.24035L127.345 0.0514321L128.582 -6.10352e-05L142.8 -6.10352e-05L144.036 0.0171254L144.655 0.0514321L145.891 0.24035L146.509 0.377709L147.745 0.566628L148.364 0.600934L149.6 0.618121L150.836 0.635307L151.455 0.669614L152.691 0.858532L153.927 1.09894L154.545 1.18481L155.782 1.2878L156.4 1.37366L157.636 1.61407L158.873 1.82018L159.491 1.88879L160.727 2.0949L161.345 2.23225L161.964 2.35243L163.2 2.59291L163.818 2.71308L164.436 2.85044L165.055 2.97061L166.291 3.21109L166.909 3.33126L168.145 3.62316L168.764 3.7949L169.382 3.93226L170 4.10399L170.618 4.24135L171.855 4.56762L172.473 4.75654L173.709 5.13425L174.327 5.32316L175.564 5.64944L176.182 5.80399L177.418 6.18176L178.036 6.3878L179.891 7.00598L181.745 7.62416L182.364 7.83026L182.982 8.05349L183.6 8.27671L184.218 8.53425L185.455 9.03226L186.691 9.51308L187.309 9.77061L188.545 10.2686L189.782 10.7494L190.4 11.0242L191.018 11.2818L191.636 11.608L192.873 12.209L193.491 12.4666L194.109 12.7413L195.345 13.2222L195.964 13.4969L196.582 13.7717L197.2 14.1151L197.818 14.4585L199.054 15.2141L199.673 15.5575L200.291 15.9181L201.527 16.5535L202.145 16.8281L202.764 17.1718L203.382 17.4636L204.618 18.1677L205.855 18.9231L207.091 19.6618L207.709 20.0222L208.945 20.8123L209.564 21.224L213.273 23.6967L213.891 24.109L214.509 24.538L215.127 24.9677L215.745 25.4313L216.982 26.3586L217.6 26.8049L218.218 27.2859L218.836 27.7322L220.073 28.6768L220.691 29.1744L221.927 30.1709L223.164 31.1495L223.782 31.6644L225.018 32.7636L225.636 33.3304L226.873 34.3776L227.491 34.8586L228.727 35.9058L229.345 36.49L230.582 37.709L231.2 38.3272L232.436 39.5636L234.291 41.4181L234.909 42.0363L236.128 43.2727L236.712 43.8909L237.759 45.1272L238.755 46.3636L239.288 46.9818L240.421 48.2181L241.469 49.4545L241.932 50.0727L242.413 50.6908L242.859 51.309L243.804 52.5454L244.302 53.1636L245.298 54.3999L245.779 55.0181L246.225 55.6363L247.084 56.8727L247.513 57.4908L248.406 58.7272L248.853 59.3454L249.23 59.9636L249.986 61.1999L250.776 62.4363L251.188 63.0545L252.012 64.2908L252.424 64.909L252.819 65.5272L253.214 66.1454L253.918 67.3818L254.227 67.9999L254.931 69.2363L255.687 70.4727L256.391 71.709L256.683 72.3272L257.301 73.5636L257.645 74.1818L257.919 74.7999L258.263 75.4181L258.537 76.0363L259.155 77.2727L259.482 77.8908L259.74 78.509L260.014 79.1272L260.495 80.3636L261.027 81.5999L261.336 82.2181L261.869 83.4545L262.35 84.6908L262.847 85.9272L263.105 86.5454L263.586 87.7818L264.084 89.0181L264.341 89.6363L264.788 90.8727L264.994 91.4909L265.406 92.7272L265.818 93.9636L266.196 95.1999L266.35 95.8181L266.677 97.0545L266.865 97.6727L267.244 98.909L267.432 99.5272L267.759 100.764L267.896 101.382L268.068 102L268.377 103.236L268.514 103.854L268.686 104.473L268.823 105.091L268.995 105.709L269.287 106.945L269.407 107.564L269.647 108.8L269.905 110.036L270.111 111.273L270.283 112.509L270.523 113.745L270.712 114.982L270.815 116.218L270.901 116.836L271.141 118.073L271.33 119.309L271.364 119.927L271.433 121.164L271.622 122.4L271.759 123.018L271.949 124.254L271.983 124.873L272 126.109L272 193.491L271.983 194.727L271.949 195.345L271.742 196.582L271.364 197.818L271.124 198.436L270.454 199.673L269.476 200.892L268.892 201.476L267.673 202.472L267.055 202.85L265.818 203.519L265.2 203.845L263.964 204.326L262.727 204.567L262.109 204.601L260.873 204.618L259.636 204.601L258.4 204.481L257.782 204.36L257.164 204.189L255.927 203.759L255.309 203.485L254.691 203.21L253.454 202.472L252.269 201.476L251.274 200.291L250.535 199.054L250.26 198.436L249.763 197.2L249.385 195.964L249.179 194.727L249.127 193.491L249.127 133.527L249.11 132.291L249.076 131.673L248.887 130.436L248.75 129.818L248.56 128.582L248.526 127.964L248.509 126.727L248.492 125.491L248.458 124.873L248.269 123.636L248.131 123.018L247.942 121.782L247.908 121.164L247.84 119.927L247.754 119.309L247.513 118.073L247.393 117.454L247.153 116.218L247.032 115.6L246.895 114.982L246.774 114.364L246.535 113.127L246.414 112.509L246.122 111.273L245.95 110.654L245.813 110.036L245.641 109.418L245.504 108.8L245.195 107.564L245.023 106.945L244.886 106.327L244.559 105.091L244.371 104.473L243.976 103.236L243.769 102.618L243.151 100.764L242.327 98.2908L241.915 97.0545L241.692 96.4363L241.469 95.8181L241.211 95.1999L240.713 93.9636L240.232 92.7272L239.958 92.109L239.7 91.4909L239.099 90.2545L238.755 89.6363L238.481 89.0181L238.137 88.3999L237.863 87.7818L237.245 86.5454L236.901 85.9272L236.626 85.309L236.283 84.6908L236.008 84.0727L235.664 83.4545L235.046 82.2181L234.755 81.5999L234.394 80.9818L234.05 80.3636L233.295 79.1272L232.556 77.8908L232.196 77.2727L231.406 76.0363L230.994 75.4181L229.758 73.5636L228.521 71.709L228.109 71.0909L227.68 70.4727L227.25 69.8545L226.787 69.2363L226.34 68.6181L225.396 67.3818L224.898 66.7636L223.902 65.5272L223.404 64.909L222.408 63.6727L221.876 63.0545L220.691 61.8181L219.506 60.5818L218.459 59.3454L217.978 58.7272L216.93 57.4908L215.745 56.2718L215.127 55.6876L213.891 54.6404L213.273 54.1595L212.036 53.1123L210.8 51.9272L210.182 51.309L208.945 50.124L208.327 49.5917L207.091 48.6131L206.473 48.1322L205.855 47.6859L205.236 47.2049L204 46.2776L203.382 45.8313L202.764 45.3504L202.145 44.9041L201.527 44.4231L200.291 43.5131L199.673 43.0835L199.054 42.6545L198.436 42.2422L195.964 40.5941L195.345 40.1991L194.727 39.8041L193.491 39.0999L192.873 38.7909L191.636 38.0867L190.4 37.3313L189.782 36.9876L189.164 36.6272L187.927 35.9917L187.309 35.7173L186.691 35.3735L186.073 35.0991L185.455 34.7554L184.836 34.4809L184.218 34.1372L182.982 33.5363L182.364 33.2785L181.745 33.004L180.509 32.5231L179.273 31.9908L178.655 31.6818L177.418 31.1495L176.8 30.9263L176.182 30.7032L175.564 30.4967L174.327 30.0504L173.709 29.7926L173.091 29.5527L171.855 29.0718L170.618 28.6768L169.382 28.3504L168.764 28.1958L168.145 28.0073L166.909 27.629L166.291 27.4404L165.055 27.114L164.436 26.9768L163.818 26.8049L162.582 26.4958L161.964 26.3586L161.345 26.1867L160.727 26.0495L160.109 25.8776L158.873 25.5859L158.255 25.4653L157.018 25.2255L155.782 24.9677L154.545 24.7618L153.927 24.6926L152.691 24.4867L152.073 24.3495L150.836 24.1603L150.218 24.1263L148.982 24.0577L147.745 23.8686L147.127 23.7313L145.891 23.5422L145.273 23.5082L144.655 23.4909L139.091 23.4909L137.855 23.4562L136.618 23.3876L136 23.3536L134.764 23.4049L134.145 23.4562L132.909 23.4909L127.964 23.4909L126.727 23.5082L126.109 23.5422L124.873 23.7313L124.255 23.8686L123.018 24.0577L121.782 24.1263L121.164 24.1603L119.927 24.3495L119.309 24.4867L118.073 24.6926L117.455 24.7618L116.218 24.9677L114.982 25.2255L113.745 25.4653L113.127 25.5859L111.891 25.8776L111.273 26.0495L110.655 26.1867L109.418 26.4958L108.8 26.6677L108.182 26.8049L107.564 26.9768L106.945 27.114L105.709 27.4404L105.091 27.629L103.855 28.024L103.236 28.2304L101.382 28.8486L97.0545 30.2908L95.8182 30.7032L95.2 30.9263L94.5818 31.1495L93.3454 31.6818L92.7272 31.9908L91.4909 32.5231L90.2545 33.004L89.6363 33.2785L89.0182 33.5363L87.7818 34.1372L87.1636 34.4809L86.5454 34.7554L85.9272 35.0991L85.3091 35.3735L84.6909 35.7173L84.0727 35.9917L82.8363 36.6272L82.2181 36.9876L81.6 37.3313L80.3636 38.0867L79.1272 38.7909L78.5091 39.0999L77.2727 39.8041L76.6545 40.1991L76.0363 40.5941L74.8 41.4181L73.5636 42.2422L72.9454 42.6545L72.3272 43.0835L71.7091 43.5131L70.4727 44.4231L69.8545 44.9041L69.2363 45.3504L68.6181 45.8313L68 46.2776L67.3818 46.7586L66.1454 47.6859L65.5272 48.1322L64.9091 48.6131L63.6727 49.5917L63.0545 50.124L61.8181 51.309L60.5818 52.4941L59.3454 53.5413L58.7272 54.0222L57.4909 55.0694L56.2545 56.2545L55.0695 57.4908L54.0223 58.7272L53.5413 59.3454L52.4941 60.5818L51.9099 61.1999L50.7082 62.4363L50.124 63.0545L49.0768 64.2908L48.0982 65.5272L47.1017 66.7636L46.6041 67.3818L46.1404 67.9999L45.6595 68.6181L45.2132 69.2363L44.7495 69.8545L43.8909 71.0909L43.0668 72.3272L41.8305 74.1818L41.0058 75.4181L40.5941 76.0363L39.8041 77.2727L39.4437 77.8908L38.705 79.1272L37.9495 80.3636L37.6058 80.9818L37.2454 81.5999L36.9536 82.2181L36.3355 83.4545L35.9918 84.0727L35.7173 84.6908L35.3736 85.309L35.0991 85.9272L34.7554 86.5454L34.1372 87.7818L33.8627 88.3999L33.519 89.0181L33.2445 89.6363L32.9008 90.2545L32.6264 90.8727L32.3 91.4909L31.7677 92.7272L31.2868 93.9636L30.7891 95.1999L30.5313 95.8181L30.085 97.0545L29.6727 98.2908L29.0545 100.145L28.2305 102.618L27.8181 103.854L27.6292 104.473L27.4404 105.091L27.1141 106.327L26.9767 106.945L26.6677 108.182L26.4959 108.8L26.3586 109.418L26.1868 110.036L26.0495 110.654L25.8777 111.273L25.5858 112.509L25.4656 113.127L25.2253 114.364L25.105 114.982L24.9677 115.6L24.8474 116.218L24.6071 117.454L24.4868 118.073L24.3495 118.691L24.1606 119.927L24.0919 121.164L24.0576 121.782L23.8687 123.018L23.7313 123.636L23.5424 124.873L23.5081 125.491L23.4909 126.727L23.4737 127.964L23.4394 128.582L23.2505 129.818L23.1131 130.436L22.9242 131.673L22.8899 132.291L22.8727 132.909L22.8727 192.873L22.8555 194.109L22.8212 194.727L22.6151 195.964L22.4434 196.582L22.0141 197.818L21.7394 198.436L21.4646 199.054L20.7262 200.291L19.7303 201.476L19.1464 201.991L18.5454 202.472L17.3091 203.21L16.0727 203.759L15.4545 203.983L14.2182 204.36L12.9818 204.567L12.3636 204.601L11.1272 204.618L10.5091 204.618L9.2727 204.567L8.03633 204.326L6.79997 203.845L6.18179 203.519L4.94542 202.85L4.32724 202.472L3.10806 201.476L2.52419 200.892L1.54542 199.673L0.875747 198.436L0.429235 197.2L0.257565 196.582L0.051465 195.345L0.0171559 194.727L-3.05176e-05 193.491L-3.05176e-05 131.054L-3.05176e-05 126.727L-3.05176e-05 125.491L0.0171559 124.873L0.051465 124.254L0.240381 123.018L0.37774 122.4L0.566656 121.164L0.635338 119.927L0.669647 119.309L0.858563 118.073L1.09897 116.836L1.18484 116.218L1.28783 114.982L1.37369 114.364L1.6141 113.127L1.82014 111.891L1.88889 111.273L2.09493 110.036L2.35252 108.8L2.59287 107.564L2.71311 106.945L3.00501 105.709L3.17674 105.091L3.3141 104.473L3.48584 103.854L3.62319 103.236L3.93229 102L4.10402 101.382L4.24138 100.764L4.56765 99.5272L4.75651 98.909L5.13434 97.6727L5.32319 97.0545L5.64947 95.8181L5.80402 95.1999L6.18179 93.9636L6.59393 92.7272L7.00601 91.4909L7.21211 90.8727L7.65856 89.6363L7.91616 89.0181L8.4141 87.7818L8.89493 86.5454L9.15252 85.9272L9.65047 84.6908L10.1313 83.4545L10.6636 82.2181L10.9727 81.5999L11.505 80.3636L11.9858 79.1272L12.2606 78.509L12.5182 77.8908L12.8444 77.2727L13.4626 76.0363L13.7373 75.4181L14.0808 74.7999L14.3555 74.1818L14.699 73.5636L15.3172 72.3272L15.6091 71.709L16.3131 70.4727L17.0686 69.2363L17.7727 67.9999L18.0818 67.3818L18.7858 66.1454L19.1808 65.5272L19.5757 64.909L19.9878 64.2908L20.8121 63.0545L21.2242 62.4363L22.0141 61.1999L22.7696 59.9636L23.1474 59.3454L23.5939 58.7272L24.4868 57.4908L24.9162 56.8727L25.7747 55.6363L26.2212 55.0181L26.702 54.3999L27.698 53.1636L28.1959 52.5454L29.1404 51.309L29.5868 50.6908L30.0677 50.0727L30.5313 49.4545L31.5786 48.2181L32.7123 46.9818L33.2445 46.3636L34.2404 45.1272L35.2876 43.8909L35.8718 43.2727L37.0909 42.0363L41.4181 37.709L42.6545 36.49L43.2727 35.9058L44.5091 34.8586L45.1272 34.3776L46.3636 33.3304L46.9818 32.7636L48.2181 31.6644L48.8363 31.1495L50.0727 30.1709L51.3091 29.1744L51.9272 28.6768L53.1636 27.7322L53.7818 27.2859L54.4 26.8049L55.0182 26.3586L56.2545 25.4313L56.8727 24.9677L57.4909 24.538L58.1091 24.109L58.7272 23.6967L60.5818 22.4603L62.4363 21.224L63.0545 20.8123L63.6727 20.4172L64.2909 20.0222L64.9091 19.6618L66.1454 18.9231L67.3818 18.1677L68 17.824L68.6181 17.4636L69.2363 17.1718L70.4727 16.5535L71.0909 16.21L71.7091 15.9353L72.9454 15.2999L73.5636 14.9394L74.1818 14.5959L74.8 14.2181L76.0363 13.5313L77.2727 12.9818L77.8909 12.7413L78.5091 12.4666L79.1272 12.209L79.7454 11.8828L80.3636 11.608L80.9818 11.2818L82.2181 10.7494L83.4545 10.2686L84.6909 9.77061L85.3091 9.51308L86.5454 9.03226L87.7818 8.53425L88.4 8.27671L89.0182 8.05349L89.6363 7.83026L90.2545 7.62416L92.1091 7.00598L93.9636 6.3878L94.5818 6.18176L95.8182 5.80399L96.4363 5.64944L97.6727 5.32316L98.2909 5.13425L99.5272 4.75654L100.145 4.56762L101.382 4.24135L102 4.10399L103.236 3.7949L103.855 3.62316L105.091 3.33126L105.709 3.21109L106.945 2.97061L107.564 2.85044L108.182 2.71308L108.8 2.59291L110.036 2.35243L110.655 2.23225L111.273 2.0949L111.891 1.97472L113.127 1.73425L113.745 1.61407L114.364 1.47671L115.6 1.2878L116.836 1.21912L117.455 1.18481L118.691 0.995891L119.309 0.858532L120.545 0.669614L121.164 0.635307L122.4 0.618121L123.018 0.618121L124.255 0.566628L125.491 0.377709ZM54.3999 147.368L53.7817 147.522L53.1635 147.659L51.9272 148.037L50.6908 148.621L50.0726 148.999L48.8876 149.858L47.8577 150.887L46.999 152.073L46.2949 153.309L46.0031 153.927L45.5562 155.163L45.385 155.782L45.2644 156.4L45.1785 157.018L45.1272 158.254L45.1272 238.618L45.1445 239.854L45.1785 240.473L45.4189 241.709L45.8999 242.945L46.2263 243.563L46.5181 244.182L47.2735 245.418L47.7544 246.019L48.2694 246.603L49.4544 247.599L50.6908 248.354L51.309 248.646L52.5453 249.213L53.1635 249.453L54.3999 249.694L55.6363 249.745L69.8544 249.745L71.0908 249.694L72.3272 249.505L72.9454 249.35L74.1817 249.041L74.7999 248.887L76.0363 248.492L76.6544 248.268L77.8908 247.736L78.509 247.41L79.1272 247.118L79.7454 246.758L80.3635 246.414L80.9817 246.019L82.2181 245.16L83.4545 244.13L84.6735 242.945L85.2577 242.327L86.2876 241.091L87.1462 239.854L87.5412 239.236L88.2454 238L88.5371 237.382L88.8635 236.763L89.3958 235.527L89.619 234.909L90.014 233.673L90.1685 233.054L90.4776 231.818L90.6322 231.2L90.8213 229.963L90.8726 228.727L90.8726 168.145L90.8213 166.909L90.6322 165.673L90.4776 165.054L90.1685 163.818L90.014 163.2L89.619 161.963L89.3958 161.345L88.8635 160.109L88.5371 159.491L88.2454 158.873L87.5072 157.636L86.6313 156.4L86.1503 155.782L85.6867 155.163L84.6395 153.944L84.0553 153.36L82.8363 152.33L81.5999 151.454L80.9817 151.042L79.7454 150.235L78.509 149.531L77.8908 149.239L76.6544 148.776L76.0363 148.569L74.7999 148.174L74.1817 148.003L73.5635 147.865L72.9454 147.745L71.709 147.505L71.0908 147.368L69.8544 147.178L69.2363 147.144L67.9999 147.127L56.8726 147.127L55.6363 147.178L54.3999 147.368ZM200.291 147.505L200.909 147.368L202.145 147.178L203.382 147.127L214.509 147.127L215.745 147.144L216.364 147.178L217.6 147.368L218.218 147.522L218.836 147.659L220.073 148.037L220.691 148.312L221.309 148.621L222.528 149.411L223.644 150.355L224.142 150.887L225.001 152.073L225.378 152.691L225.997 153.927L226.444 155.163L226.615 155.782L226.821 157.018L226.855 157.636L226.873 158.873L226.873 239.236L226.821 240.473L226.718 241.091L226.581 241.709L226.34 242.327L225.773 243.563L225.482 244.182L224.726 245.418L223.73 246.603L222.545 247.599L221.309 248.337L220.691 248.612L219.454 249.11L218.218 249.487L217.6 249.608L216.982 249.694L215.745 249.745L202.764 249.745L201.527 249.728L200.909 249.694L199.673 249.505L199.054 249.35L197.818 249.041L197.2 248.887L196.582 248.698L195.345 248.268L194.109 247.736L193.491 247.41L192.873 247.118L191.636 246.414L191.018 246.019L189.782 245.16L188.545 244.13L187.927 243.546L186.742 242.327L185.712 241.091L184.854 239.854L184.459 239.236L183.754 238L183.463 237.382L183.136 236.763L182.604 235.527L182.381 234.909L181.986 233.673L181.831 233.054L181.522 231.818L181.368 231.2L181.178 229.963L181.127 228.727L181.127 168.145L181.178 166.909L181.368 165.673L181.522 165.054L181.831 163.818L181.986 163.2L182.381 161.963L182.604 161.345L183.136 160.109L183.463 159.491L183.754 158.873L184.493 157.636L185.368 156.4L185.849 155.782L186.313 155.163L187.36 153.944L187.944 153.36L189.163 152.33L190.4 151.454L191.018 151.042L192.254 150.235L192.873 149.858L194.109 149.239L195.345 148.776L195.964 148.569L197.2 148.174L197.818 148.003L199.054 147.745L200.291 147.505Z" id="Shape" fill="#000000" fill-rule="evenodd" stroke="none" />
  </g>
</svg>